<svg xmlns="http://www.w3.org/2000/svg" viewBox="0 0 100 100" width="100%" height="100%">
  <defs>
    <linearGradient id="mediloop-grad-fav" x1="0%" y1="0%" x2="100%" y2="100%">
      <stop offset="0%" stop-color="#0F766E" />
      <stop offset="100%" stop-color="#2563EB" />
    </linearGradient>
  </defs>
  <circle cx="50" cy="50" r="46" fill="none" stroke="url(#mediloop-grad-fav)" stroke-width="6" />
  <g transform="translate(50, 50) scale(0.65) rotate(-30)">
    <path d="M -30,-15 L 0,-15 A 15,15 0 0,1 0,15 L -30,15 A 15,15 0 0,1 -30,-15 Z" fill="#0F766E" />
    <path d="M 0,-15 L 30,-15 A 15,15 0 0,1 30,15 L 0,15 A 15,15 0 0,1 0,-15 Z" fill="#2563EB" />
    <path d="M -5,-15 L -5,15 L 5,15 L 5,-15 Z" fill="#FFFFFF" />
    <path d="M -15,-5 L -15,5 L 15,5 L 15,-5 Z" fill="#FFFFFF" />
  </g>
</svg>
